<?xml version="1.0" encoding="utf-8"?>
<!-- Generator: Adobe Illustrator 24.0.3, SVG Export Plug-In . SVG Version: 6.00 Build 0)  -->
<svg version="1.1" id="Layer_1" xmlns="http://www.w3.org/2000/svg" xmlns:xlink="http://www.w3.org/1999/xlink" x="0px" y="0px"
	 viewBox="0 0 1698.3 246.9" style="enable-background:new 0 0 1698.3 246.9;" xml:space="preserve">
<style type="text/css">
	.st0{fill:#FFFFFF;}
</style>
<g>
	<path class="st0" d="M2.7,240.1c-2-2-2.7-4-2.7-6.7V13.5c0-2.7,0.7-4.7,2.7-6.7c2-2,4-2.7,6.7-2.7h103.2c31.7,0,56.7,6.7,74.9,20.9
		C205.7,39.1,215.2,60,215.2,87s-8.8,47.9-27,60.7s-43.2,20.2-75.5,20.2H89v65.4c0,2.7-0.7,4.7-2.7,6.7c-2,2-4,2.7-6.7,2.7H9.4
		C6.1,242.8,4,242.1,2.7,240.1z M110.6,105.2c4,0,7.4-1.3,10.8-4.7s4.7-7.4,4.7-13.5c0-5.4-1.3-9.4-4-13.5c-2.7-4-6.7-6.1-12.1-6.1
		H86.3v37.8H110.6z"/>
	<path class="st0" d="M249.6,240.1c-2-2-2.7-4-2.7-6.7V13.5c0-2.7,0.7-4.7,2.7-6.7c2-2,4-2.7,6.7-2.7h101.2c33,0,58,7.4,76.9,22.3
		C452.6,41.1,462,61.4,462,87c0,14.8-3.4,27.7-10.1,39.1c-6.7,11.5-15.5,20.2-27,27.7l41.8,77.6c0.7,1.3,1.3,2.7,1.3,4
		c0,2-0.7,4-2,5.4c-1.3,1.3-3.4,2-5.4,2h-70.8c-4,0-7.4-0.7-9.4-2.7c-2.7-2-4-4-4.7-6.1l-29-65.4h-14.2V234c0,2.7-0.7,4.7-2.7,6.7
		c-2,2-4,2.7-6.7,2.7h-66.8C253.6,242.8,251.6,242.1,249.6,240.1z M356.8,103.9c4.7,0,8.8-1.3,11.5-4.7s4-7.4,4-12.1
		c0-4.7-1.3-9.4-4-12.8c-2.7-4-6.7-5.4-11.5-5.4h-25v36.4h25V103.9z"/>
	<path class="st0" d="M524.1,222.6c-20.2-15.5-31-38.4-32.4-68.8c0-6.1-0.7-16.2-0.7-29.7c0-14.2,0-24.3,0.7-30.4
		c0.7-19.6,6.1-36.4,15.5-50.6c9.4-14.2,22.9-25,39.8-32.4C563.8,3.4,583.4,0,605.7,0c22.3,0,41.8,3.4,58.7,10.8
		c16.9,7.4,30.4,18.2,39.8,32.4c9.4,14.2,14.8,31,15.5,50.6c0.7,12.8,0.7,22.9,0.7,30.4s0,17.5-0.7,29.7
		c-1.3,29.7-12.1,52.6-32.4,68.8c-20.2,15.5-47.2,23.6-81.6,23.6S544.3,238.8,524.1,222.6z M623.9,172.7c4.7-4.7,6.7-11.5,6.7-20.9
		c0.7-13.5,0.7-22.9,0.7-29c0-6.7,0-16.2-0.7-28.3c0-9.4-2.7-16.2-7.4-20.9c-4.7-4.7-10.8-6.7-18.2-6.7c-7.4,0-13.5,2-18.2,6.7
		c-4.7,4.7-6.7,11.5-7.4,20.9c0,6.1-0.7,15.5-0.7,28.3c0,12.8,0,22.3,0.7,29c0,9.4,2.7,16.2,6.7,20.9c4.7,4.7,10.8,6.7,18.2,6.7
		C613.8,180.1,619.8,177.4,623.9,172.7z"/>
	<path class="st0" d="M797.2,236.1c-16.2-6.7-29.7-16.2-39.8-29c-10.1-12.8-14.8-27.7-15.5-44.5c0-2,0.7-4,2-5.4
		c1.3-1.3,3.4-2,5.4-2h69.5c3.4,0,6.7,0.7,8.1,2.7c2,2,4,4.7,5.4,8.1c2,4.7,4.7,8.8,7.4,10.8c2.7,2,6.7,3.4,12.1,3.4
		c6.7,0,11.5-2,14.8-6.1c3.4-4,5.4-11.5,5.4-21.6V73.5H770.9c-2.7,0-4.7-0.7-6.7-2.7c-2-2-2.7-4-2.7-6.7V13.5c0-2.7,0.7-4.7,2.7-6.7
		c2-2,4-2.7,6.7-2.7H951c2.7,0,4.7,0.7,6.7,2.7s2.7,4,2.7,6.7v141.6c0,20.2-4.7,37.1-14.2,51.3c-9.4,13.5-22.9,23.6-39.8,30.4
		c-16.9,6.7-35.7,10.1-57.3,10.1C831.6,246.2,813.4,242.8,797.2,236.1z"/>
	<path class="st0" d="M1006.3,240.1c-2-2-2.7-4-2.7-6.7V13.5c0-2.7,0.7-4.7,2.7-6.7c2-2,4-2.7,6.7-2.7h174.7c2.7,0,4.7,0.7,6.7,2.7
		s2.7,4,2.7,6.7v47.9c0,2.7-0.7,4.7-2.7,6.7c-2,2-4,2.7-6.7,2.7h-102.5v21.6h95.1c2.7,0,4.7,0.7,6.7,2.7s2.7,4,2.7,6.7v44.5
		c0,2.7-0.7,4.7-2.7,6.7c-2,2-4,2.7-6.7,2.7h-95.1v21.6h105.2c2.7,0,4.7,0.7,6.7,2.7c2,2,2.7,4,2.7,6.7v47.9c0,2.7-0.7,4.7-2.7,6.7
		c-2,2-4,2.7-6.7,2.7H1013C1010.3,242.8,1008.3,242.1,1006.3,240.1z"/>
	<path class="st0" d="M1262.6,223.9c-20.2-14.8-31-38.4-32.4-69.5c0-6.1,0-16.2,0-29.7c0-14.2,0-24.3,0-30.4
		c1.3-30.4,12.1-53.3,33-68.8c20.9-15.5,47.9-23.6,80.9-23.6c20.2,0,39.1,3.4,56.7,9.4c16.9,6.1,31,15.5,41.8,29
		c10.8,12.8,16.2,29.7,16.9,49.2c0,2-0.7,4-2,5.4c-1.3,1.3-3.4,2-5.4,2h-69.5c-3.4,0-6.1-0.7-8.1-2c-2-1.3-3.4-4-4.7-8.1
		c-2.7-6.7-6.1-11.5-10.1-14.2c-4-2.7-9.4-4-15.5-4c-8.1,0-14.2,2-18.2,6.1c-4,4-6.7,11.5-6.7,21.6c0,6.1-0.7,15.5-0.7,28.3
		c0,12.8,0,22.3,0.7,29c0,10.1,2.7,16.9,6.7,21.6c4,4,10.1,6.1,18.2,6.1c12.8,0,21.6-6.1,25.6-18.2c1.3-4,2.7-6.7,4-8.1
		c2-1.3,4.7-2,8.1-2h69.5c2,0,4,0.7,5.4,2c1.3,1.3,2,3.4,2,5.4c0,19.6-6.1,36.4-16.9,49.2c-10.8,12.8-25,22.9-41.8,29
		s-35.7,9.4-56.7,9.4C1309.8,246.2,1282.8,238.8,1262.6,223.9z"/>
	<path class="st0" d="M1548.6,240.1c-2-2-2.7-4-2.7-6.7V77.6h-56.7c-2.7,0-4.7-0.7-6.7-2.7s-2.7-4-2.7-6.7V13.5
		c0-2.7,0.7-4.7,2.7-6.7c2-2,4-2.7,6.7-2.7h199.6c2.7,0,4.7,0.7,6.7,2.7s2.7,4,2.7,6.7v54.6c0,2.7-0.7,4.7-2.7,6.7
		c-2,2-4,2.7-6.7,2.7h-56.7v155.8c0,2.7-0.7,4.7-2.7,6.7c-2,2-4,2.7-6.7,2.7h-68.1C1552.6,242.8,1550.6,242.1,1548.6,240.1z"/>
</g>
</svg>
