<?xml version="1.0" encoding="utf-8"?>
<!-- Generator: Adobe Illustrator 22.1.0, SVG Export Plug-In . SVG Version: 6.00 Build 0)  -->
<!DOCTYPE svg PUBLIC "-//W3C//DTD SVG 1.1//EN" "http://www.w3.org/Graphics/SVG/1.1/DTD/svg11.dtd">
<svg version="1.1" id="Layer_1" xmlns="http://www.w3.org/2000/svg" xmlns:xlink="http://www.w3.org/1999/xlink" x="0px" y="0px"
	 viewBox="0 0 1000 339" style="enable-background:new 0 0 1000 339;" xml:space="preserve">
<style type="text/css">
	.st0{fill:#FFFFFF;}
</style>
<g>
	<path class="st0" d="M40.1,73.7h61.4c1.1,0,2,0.4,2.8,1.2c0.8,0.8,1.2,1.7,1.2,2.8v22.4c0,1.1-0.4,2-1.2,2.8
		c-0.8,0.8-1.7,1.2-2.8,1.2H4c-1.1,0-2-0.4-2.8-1.2c-0.8-0.8-1.2-1.7-1.2-2.8v-96c0-1.1,0.4-2,1.2-2.8C2,0.5,2.9,0.1,4,0.1h32.1
		c1.1,0,2,0.4,2.8,1.2c0.8,0.8,1.2,1.7,1.2,2.8V73.7z"/>
	<path class="st0" d="M4.1,113.5h55.6c14.1,0,25.2,3.4,33.4,10.2c8.2,6.8,12.3,15.6,12.3,26.3c0,10.7-3.5,19.2-10.4,25.5
		c-6.9,6.3-18.7,9.4-35.4,9.4H40v28.5c0,1.1-0.4,2-1.2,2.8c-0.8,0.8-1.7,1.2-2.8,1.2H4.1c-1.1,0-2-0.4-2.8-1.2
		c-0.8-0.8-1.2-1.7-1.2-2.8v-96c0-1.1,0.4-2,1.2-2.8C2.1,113.9,3,113.5,4.1,113.5z M40.2,141.1v16.3h18.9c2.3,0,4.1-0.7,5.6-2.1
		c1.4-1.4,2.2-3.3,2.2-5.8c0-2.5-0.7-4.5-2.1-6.1c-1.4-1.6-3.3-2.4-5.6-2.4H40.2z"/>
	<g>
		<path class="st0" d="M38.6,301.8h62.8c1.1,0,2,0.4,2.8,1.2c0.8,0.8,1.2,1.7,1.2,2.8v20.9c0,1.1-0.4,2-1.2,2.8
			c-0.8,0.8-1.7,1.2-2.8,1.2H4c-1.1,0-2-0.4-2.8-1.2c-0.8-0.8-1.2-1.7-1.2-2.8v-96c0-1.1,0.4-2,1.2-2.8c0.8-0.8,1.7-1.2,2.8-1.2
			h97.3c1.1,0,2,0.4,2.8,1.2c0.8,0.8,1.2,1.7,1.2,2.8v20.9c0,1.1-0.4,2-1.2,2.8c-0.8,0.8-1.7,1.2-2.8,1.2H38.6v9.4h49.6
			c1.1,0,2,0.4,2.8,1.2c0.8,0.8,1.2,1.7,1.2,2.8v19.3c0,1.1-0.4,2-1.2,2.8c-0.8,0.8-1.7,1.2-2.8,1.2H38.6V301.8z"/>
		
	</g>
	<path class="st0" d="M142.1,104.1H114c-0.9,0-1.7-0.3-2.3-1c-0.6-0.6-1-1.3-1-1.9s0-1,0.1-1.3l32.4-94.9c0.9-3.3,3.1-4.9,6.7-4.9
		h41.3c3.6,0,5.8,1.6,6.7,4.9l32.4,94.9c0.1,0.3,0.1,0.7,0.1,1.3s-0.3,1.2-1,1.9c-0.6,0.6-1.4,1-2.3,1h-28.1c-3.2,0-5.4-1.7-6.7-5.1
		l-3.7-10.4h-36.2l-3.7,10.4C147.5,102.4,145.3,104.1,142.1,104.1z M181.2,59.7l-10.5-30.9l-10.5,30.9H181.2z"/>
	<path class="st0" d="M264,104.1h-20.8c-1.9,0-3.4-0.6-4.7-1.7c-1.2-1.1-2-2.5-2.2-3.9L223.5,3.9V3.4c0-0.9,0.3-1.7,1-2.3
		c0.6-0.6,1.4-1,2.3-1h25.5c2,0,3.6,0.6,4.8,1.8c1.2,1.2,2,2.7,2.2,4.5l4.8,45.5l8.6-23.6c0.3-1,1-2,2.2-2.9
		c1.1-0.9,2.6-1.4,4.4-1.4h10.1c1.8,0,3.2,0.5,4.4,1.4c1.1,0.9,1.9,1.9,2.2,2.9l8.6,23.6l4.8-45.5c0.2-1.8,0.9-3.3,2.2-4.5
		c1.2-1.2,2.8-1.8,4.8-1.8h25.5c0.9,0,1.7,0.3,2.3,1c0.6,0.6,1,1.4,1,2.3v0.4l-12.9,94.6c-0.2,1.5-0.9,2.8-2.2,3.9
		c-1.2,1.1-2.8,1.7-4.7,1.7h-20.8c-1.8,0-3.2-0.4-4.4-1.3c-1.1-0.9-1.9-1.8-2.2-2.7l-13.7-31.3l-13.7,31.3c-0.3,0.9-1,1.8-2.2,2.7
		C267.3,103.7,265.8,104.1,264,104.1z"/>
	<path class="st0" d="M382.9,26c0-6.9,3.3-13,9.8-18.2c6.5-5.2,15.7-7.8,27.4-7.8c11.7,0,20.6,2.5,26.7,7.6
		c6.1,5.1,9.1,11.2,9.1,18.4c0,10.3-6.1,18.9-18.4,25.8l9.7,9.3c1.9-1.6,4.2-4.9,6.8-10.1c0.4-0.9,1.4-1.4,3-1.4h24.1
		c0.8,0,1.4,0.2,1.9,0.7c0.5,0.5,0.7,1.1,0.7,1.8c0,2.8-2,7.3-6.1,13.5c-4.1,6.2-7.9,11.1-11.4,14.6l17.8,18.7
		c0.6,0.6,0.9,1.4,0.9,2.2c0,0.8-0.3,1.5-0.8,2c-0.5,0.5-1.2,0.8-1.9,0.8H451c-1.3,0-2.5-0.5-3.7-1.6l-4-3.8
		c-8.5,3.7-18.1,5.6-28.7,5.6c-13.7,0-24.2-2.6-31.6-7.9c-7.4-5.3-11.1-12.9-11.1-22.9c0-11.2,6.4-20.2,19.3-27.2
		C385.7,39.7,382.9,33,382.9,26z M405.8,70.8c0,2.5,1,4.5,3,6.1c2,1.5,4.5,2.3,7.6,2.3c3.1,0,5.3-0.5,6.7-1.4l-13.2-12.5
		C407.1,66.5,405.8,68.3,405.8,70.8z M420.7,22.7c-1.4,0-2.6,0.5-3.6,1.5c-1,1-1.6,2.3-1.6,3.9s1.4,3.7,4.3,6.3
		c4.2-1.8,6.2-4.1,6.2-7C426,24.3,424.2,22.7,420.7,22.7z"/>
	<g>
		<path class="st0" d="M222.3,156.6v17.7c0,9.9-2.5,18.3-7.4,24.9c-5,6.7-11.4,11.4-19.5,14.2c-8,2.8-17.5,4.2-28.4,4.2
			c-10.9,0-20.4-1.4-28.4-4.2c-8-2.8-14.5-7.5-19.5-14.2c-5-6.7-7.4-15.1-7.4-25.2v-17.1c0-14.6,5.1-25.5,15.4-32.7
			c10.2-7.2,23.5-10.9,39.9-10.9c16.3,0,29.6,3.6,39.9,10.9C217.2,131.4,222.3,142.3,222.3,156.6z M151.9,154.2v22.5
			c0,3.8,1.4,6.8,4.1,8.8c2.7,2.1,6.4,3.1,11.1,3.1c4.7,0,8.3-1.1,11.1-3.2c2.7-2.1,4.1-5.1,4.1-8.9v-22.2c0-3.8-1.4-6.8-4.1-8.9
			c-2.7-2.1-6.4-3.2-11.1-3.2c-4.7,0-8.3,1-11.1,3.1C153.2,147.5,151.9,150.4,151.9,154.2z"/>
		<path class="st0" d="M271.6,187h50.7c1.1,0,2,0.4,2.8,1.2c0.8,0.8,1.2,1.7,1.2,2.8v22.4c0,1.1-0.4,2-1.2,2.8
			c-0.8,0.8-1.7,1.2-2.8,1.2h-86.8c-1.1,0-2-0.4-2.8-1.2c-0.8-0.8-1.2-1.7-1.2-2.8v-96c0-1.1,0.4-2,1.2-2.8c0.8-0.8,1.7-1.2,2.8-1.2
			h32.1c1.1,0,2,0.4,2.8,1.2c0.8,0.8,1.2,1.7,1.2,2.8V187z"/>
	</g>
	<path class="st0" d="M432.1,143.9h-26.9V187h26.9c1.1,0,2,0.4,2.8,1.2c0.8,0.8,1.2,1.7,1.2,2.8v22.4c0,1.1-0.4,2-1.2,2.8
		c-0.8,0.8-1.7,1.2-2.8,1.2h-94.2c-1.1,0-2-0.4-2.8-1.2c-0.8-0.8-1.2-1.7-1.2-2.8V191c0-1.1,0.4-2,1.2-2.8c0.8-0.8,1.7-1.2,2.8-1.2
		h27.2v-43.1h-27.2c-1.1,0-2-0.4-2.8-1.2c-0.8-0.8-1.2-1.7-1.2-2.8v-22.4c0-1.1,0.4-2,1.2-2.8c0.8-0.8,1.7-1.2,2.8-1.2h94.2
		c1.1,0,2,0.4,2.8,1.2c0.8,0.8,1.2,1.7,1.2,2.8v22.4c0,1.1-0.4,2-1.2,2.8C434.1,143.5,433.2,143.9,432.1,143.9z"/>
	<path class="st0" d="M448.3,113.5h102.5c1.1,0,2,0.4,2.8,1.2c0.8,0.8,1.2,1.7,1.2,2.8v23.9c0,1.1-0.4,2-1.2,2.8
		c-0.8,0.8-1.7,1.2-2.8,1.2h-31.9v68c0,1.1-0.4,2-1.2,2.8c-0.8,0.8-1.7,1.2-2.8,1.2h-30.6c-1.1,0-2-0.4-2.8-1.2
		c-0.8-0.8-1.2-1.7-1.2-2.8v-68h-31.9c-1.1,0-2-0.4-2.8-1.2c-0.8-0.8-1.2-1.7-1.2-2.8v-23.9c0-1.1,0.4-2,1.2-2.8
		C446.2,113.9,447.2,113.5,448.3,113.5z"/>
	<path class="st0" d="M661,143.9h-26.9V187H661c1.1,0,2,0.4,2.8,1.2c0.8,0.8,1.2,1.7,1.2,2.8v22.4c0,1.1-0.4,2-1.2,2.8
		c-0.8,0.8-1.7,1.2-2.8,1.2h-94.2c-1.1,0-2-0.4-2.8-1.2c-0.8-0.8-1.2-1.7-1.2-2.8V191c0-1.1,0.4-2,1.2-2.8c0.8-0.8,1.7-1.2,2.8-1.2
		h27.2v-43.1h-27.2c-1.1,0-2-0.4-2.8-1.2c-0.8-0.8-1.2-1.7-1.2-2.8v-22.4c0-1.1,0.4-2,1.2-2.8c0.8-0.8,1.7-1.2,2.8-1.2H661
		c1.1,0,2,0.4,2.8,1.2c0.8,0.8,1.2,1.7,1.2,2.8v22.4c0,1.1-0.4,2-1.2,2.8C663.1,143.5,662.1,143.9,661,143.9z"/>
	<path class="st0" d="M710.4,154.2v22.5c0,3.8,1.4,6.8,4.1,8.8c2.7,2.1,6.3,3.1,10.7,3.1c4.4,0,7.6-0.7,9.6-2c2-1.3,3.6-3.2,5-5.8
		c1.3-2.5,3.1-3.8,5.3-3.8h32.1c0.9,0,1.7,0.3,2.3,1c0.6,0.6,1,1.4,1,2.3c0,9.1-4.4,17.3-13.1,24.8c-4.4,3.7-10.2,6.7-17.4,9
		c-7.2,2.3-15.7,3.4-25.5,3.4c-9.8,0-18.7-1.5-26.8-4.4c-8.1-2.9-14.6-7.8-19.7-14.5c-5.1-6.7-7.6-14.9-7.6-24.7v-17.1
		c0-9.8,2.5-18,7.6-24.8c9.5-12.6,25.4-18.8,47.7-18.8c9,0,17.1,1.1,24.4,3.4c7.2,2.3,13,5.3,17.4,9c8.7,7.5,13.1,15.8,13.1,24.8
		c0,0.9-0.3,1.6-1,2.3c-0.6,0.6-1.4,0.9-2.3,0.9H745c-2.2,0-3.9-1.3-5.3-3.8c-1.3-2.5-3-4.4-5-5.8c-2-1.3-5.2-2-9.6-2
		c-4.4,0-8,1-10.7,3.1C711.7,147.5,710.4,150.4,710.4,154.2z"/>
	<path class="st0" d="M810.7,217.5h-28.1c-0.9,0-1.7-0.3-2.3-1c-0.6-0.6-1-1.3-1-1.9c0-0.6,0-1,0.1-1.3l32.4-94.9
		c0.9-3.3,3.1-4.9,6.7-4.9h41.3c3.6,0,5.8,1.6,6.7,4.9l32.4,94.9c0.1,0.3,0.1,0.7,0.1,1.3c0,0.6-0.3,1.2-1,1.9c-0.6,0.6-1.4,1-2.3,1
		h-28.1c-3.2,0-5.4-1.7-6.7-5.1l-3.7-10.4h-36.2l-3.7,10.4C816.1,215.8,813.9,217.5,810.7,217.5z M849.8,173.1l-10.5-30.9
		l-10.5,30.9H849.8z"/>
	<path class="st0" d="M945.3,187H996c1.1,0,2,0.4,2.8,1.2c0.8,0.8,1.2,1.7,1.2,2.8v22.4c0,1.1-0.4,2-1.2,2.8
		c-0.8,0.8-1.7,1.2-2.8,1.2h-86.8c-1.1,0-2-0.4-2.8-1.2c-0.8-0.8-1.2-1.7-1.2-2.8v-96c0-1.1,0.4-2,1.2-2.8c0.8-0.8,1.7-1.2,2.8-1.2
		h32.1c1.1,0,2,0.4,2.8,1.2c0.8,0.8,1.2,1.7,1.2,2.8V187z"/>
	<path class="st0" d="M149.6,267.6v22.5c0,3.8,1.4,6.8,4.1,8.8c2.7,2.1,6.3,3.1,10.7,3.1c4.4,0,7.6-0.7,9.6-2c2-1.3,3.6-3.2,5-5.8
		c1.3-2.5,3.1-3.8,5.3-3.8h32.1c0.9,0,1.7,0.3,2.3,1c0.6,0.6,1,1.4,1,2.3c0,9.1-4.4,17.3-13.1,24.8c-4.4,3.7-10.2,6.7-17.4,9
		c-7.2,2.3-15.7,3.4-25.5,3.4s-18.7-1.5-26.8-4.4c-8.1-2.9-14.6-7.8-19.7-14.5c-5.1-6.7-7.6-14.9-7.6-24.7v-17.1
		c0-9.8,2.5-18,7.6-24.8c9.5-12.6,25.4-18.8,47.7-18.8c9,0,17.1,1.1,24.4,3.4c7.2,2.3,13,5.3,17.4,9c8.7,7.5,13.1,15.8,13.1,24.8
		c0,0.9-0.3,1.6-1,2.3c-0.6,0.6-1.4,0.9-2.3,0.9h-32.1c-2.2,0-3.9-1.3-5.3-3.8c-1.3-2.5-3-4.4-5-5.8c-2-1.3-5.2-2-9.6-2
		c-4.4,0-8,1-10.7,3.1C151,260.8,149.6,263.8,149.6,267.6z"/>
	<g>
		<path class="st0" d="M337.4,270v17.7c0,9.9-2.5,18.3-7.4,24.9c-5,6.7-11.4,11.4-19.5,14.2c-8,2.8-17.5,4.2-28.4,4.2
			c-10.9,0-20.4-1.4-28.4-4.2c-8-2.8-14.5-7.5-19.5-14.2c-5-6.7-7.4-15.1-7.4-25.2v-17.1c0-14.6,5.1-25.5,15.4-32.7
			c10.2-7.2,23.5-10.9,39.9-10.9c16.3,0,29.6,3.6,39.9,10.9S337.4,255.6,337.4,270z M267,267.6v22.5c0,3.8,1.4,6.8,4.1,8.8
			c2.7,2.1,6.4,3.1,11.1,3.1c4.7,0,8.3-1.1,11.1-3.2c2.7-2.1,4.1-5.1,4.1-8.9v-22.2c0-3.8-1.4-6.8-4.1-8.9
			c-2.7-2.1-6.4-3.2-11.1-3.2c-4.7,0-8.3,1-11.1,3.1C268.4,260.8,267,263.8,267,267.6z"/>
		<path class="st0" d="M416.9,226.8h27.6c1.1,0,2,0.4,2.8,1.2c0.8,0.8,1.2,1.7,1.2,2.8v96c0,1.1-0.4,2-1.2,2.8
			c-0.8,0.8-1.7,1.2-2.8,1.2h-23.9c-2.4,0-4.4-1-5.9-3.1l-32.4-41.3v40.4c0,1.1-0.4,2-1.2,2.8c-0.8,0.8-1.7,1.2-2.8,1.2h-27.6
			c-1.1,0-2-0.4-2.8-1.2c-0.8-0.8-1.2-1.7-1.2-2.8v-96c0-1.1,0.4-2,1.2-2.8c0.8-0.8,1.7-1.2,2.8-1.2h24.1c2.4,0,4.3,1,5.8,3
			l32.4,44.7v-43.7c0-1.1,0.4-2,1.2-2.8C414.8,227.2,415.8,226.8,416.9,226.8z"/>
		<path class="st0" d="M568.2,270v17.7c0,9.9-2.5,18.3-7.4,24.9c-5,6.7-11.4,11.4-19.5,14.2c-8,2.8-17.5,4.2-28.4,4.2
			c-10.9,0-20.4-1.4-28.4-4.2c-8-2.8-14.5-7.5-19.5-14.2c-5-6.7-7.4-15.1-7.4-25.2v-17.1c0-14.6,5.1-25.5,15.4-32.7
			c10.2-7.2,23.5-10.9,39.9-10.9c16.3,0,29.6,3.6,39.9,10.9S568.2,255.6,568.2,270z M497.8,267.6v22.5c0,3.8,1.4,6.8,4.1,8.8
			c2.7,2.1,6.4,3.1,11.1,3.1c4.7,0,8.3-1.1,11.1-3.2c2.7-2.1,4.1-5.1,4.1-8.9v-22.2c0-3.8-1.4-6.8-4.1-8.9
			c-2.7-2.1-6.4-3.2-11.1-3.2c-4.7,0-8.3,1-11.1,3.1C499.2,260.8,497.8,263.8,497.8,267.6z"/>
		<path class="st0" d="M660.3,226.8h27.2c1.1,0,2,0.4,2.8,1.2c0.8,0.8,1.2,1.7,1.2,2.8v96c0,1.1-0.4,2-1.2,2.8
			c-0.8,0.8-1.7,1.2-2.8,1.2h-26.9c-1.1,0-2-0.4-2.8-1.2c-0.8-0.8-1.2-1.7-1.2-2.8v-46l-10.8,21.4c-0.6,1.2-1.5,2.1-2.7,2.7
			c-1.2,0.6-2.4,1-3.6,1h-10.1c-1.7,0-3.1-0.4-4.2-1.3c-1.1-0.9-1.8-1.7-2.1-2.4l-10.8-21.4v46c0,1.1-0.4,2-1.2,2.8
			c-0.8,0.8-1.7,1.2-2.8,1.2h-26.9c-1.1,0-2-0.4-2.8-1.2c-0.8-0.8-1.2-1.7-1.2-2.8v-96c0-1.1,0.4-2,1.2-2.8c0.8-0.8,1.7-1.2,2.8-1.2
			h27.2c2.8,0,4.9,1.3,6.4,4l19.5,35.7l19.5-35.7C655.4,228.2,657.5,226.8,660.3,226.8z"/>
		<path class="st0" d="M777.1,226.8h31c0.9,0,1.7,0.3,2.3,1c0.6,0.6,1,1.3,1,2c0,0.7-0.1,1.3-0.4,1.9l-37.4,61.9v33.1
			c0,1.1-0.4,2-1.2,2.8c-0.8,0.8-1.7,1.2-2.8,1.2h-31.6c-1.1,0-2-0.4-2.8-1.2c-0.8-0.8-1.2-1.7-1.2-2.8v-33.1l-37.3-61.9
			c-0.3-0.6-0.4-1.2-0.4-1.9c0-0.7,0.3-1.4,1-2c0.6-0.6,1.4-1,2.3-1h31.3c2.8,0,4.8,1.1,6.1,3.4l16.8,29.4l17.2-29.1
			C772.3,228.1,774.4,226.8,777.1,226.8z"/>
	</g>
</g>
</svg>
