<svg version="1.1" id="Layer_1" xmlns="http://www.w3.org/2000/svg" x="0" y="0" viewBox="0 0 1000 339" xml:space="preserve"><path d="M40.1 73.7h61.4c1.1 0 2 .4 2.8 1.2.8.8 1.2 1.7 1.2 2.8v22.4c0 1.1-.4 2-1.2 2.8-.8.8-1.7 1.2-2.8 1.2H4c-1.1 0-2-.4-2.8-1.2-.8-.8-1.2-1.7-1.2-2.8v-96c0-1.1.4-2 1.2-2.8C2 .5 2.9.1 4 .1h32.1c1.1 0 2 .4 2.8 1.2.8.8 1.2 1.7 1.2 2.8v69.6zm-36 39.8h55.6c14.1 0 25.2 3.4 33.4 10.2 8.2 6.8 12.3 15.6 12.3 26.3 0 10.7-3.5 19.2-10.4 25.5-6.9 6.3-18.7 9.4-35.4 9.4H40v28.5c0 1.1-.4 2-1.2 2.8-.8.8-1.7 1.2-2.8 1.2H4.1c-1.1 0-2-.4-2.8-1.2-.8-.8-1.2-1.7-1.2-2.8v-96c0-1.1.4-2 1.2-2.8.8-.7 1.7-1.1 2.8-1.1zm36.1 27.6v16.3h18.9c2.3 0 4.1-.7 5.6-2.1 1.4-1.4 2.2-3.3 2.2-5.8s-.7-4.5-2.1-6.1c-1.4-1.6-3.3-2.4-5.6-2.4h-19zm-1.6 160.7h62.8c1.1 0 2 .4 2.8 1.2.8.8 1.2 1.7 1.2 2.8v20.9c0 1.1-.4 2-1.2 2.8-.8.8-1.7 1.2-2.8 1.2H4c-1.1 0-2-.4-2.8-1.2-.8-.8-1.2-1.7-1.2-2.8v-96c0-1.1.4-2 1.2-2.8.8-.8 1.7-1.2 2.8-1.2h97.3c1.1 0 2 .4 2.8 1.2.8.8 1.2 1.7 1.2 2.8v20.9c0 1.1-.4 2-1.2 2.8-.8.8-1.7 1.2-2.8 1.2H38.6v9.4h49.6c1.1 0 2 .4 2.8 1.2.8.8 1.2 1.7 1.2 2.8v19.3c0 1.1-.4 2-1.2 2.8-.8.8-1.7 1.2-2.8 1.2H38.6v9.5zm103.5-197.7H114c-.9 0-1.7-.3-2.3-1-.6-.6-1-1.3-1-1.9s0-1 .1-1.3L143.2 5c.9-3.3 3.1-4.9 6.7-4.9h41.3c3.6 0 5.8 1.6 6.7 4.9l32.4 94.9c.1.3.1.7.1 1.3s-.3 1.2-1 1.9c-.6.6-1.4 1-2.3 1H199c-3.2 0-5.4-1.7-6.7-5.1l-3.7-10.4h-36.2L148.7 99c-1.2 3.4-3.4 5.1-6.6 5.1zm39.1-44.4l-10.5-30.9-10.5 30.9h21zm82.8 44.4h-20.8c-1.9 0-3.4-.6-4.7-1.7-1.2-1.1-2-2.5-2.2-3.9L223.5 3.9v-.5c0-.9.3-1.7 1-2.3.6-.6 1.4-1 2.3-1h25.5c2 0 3.6.6 4.8 1.8 1.2 1.2 2 2.7 2.2 4.5l4.8 45.5 8.6-23.6c.3-1 1-2 2.2-2.9 1.1-.9 2.6-1.4 4.4-1.4h10.1c1.8 0 3.2.5 4.4 1.4 1.1.9 1.9 1.9 2.2 2.9l8.6 23.6 4.8-45.5c.2-1.8.9-3.3 2.2-4.5 1.2-1.2 2.8-1.8 4.8-1.8h25.5c.9 0 1.7.3 2.3 1 .6.6 1 1.4 1 2.3v.4l-12.9 94.6c-.2 1.5-.9 2.8-2.2 3.9-1.2 1.1-2.8 1.7-4.7 1.7h-20.8c-1.8 0-3.2-.4-4.4-1.3-1.1-.9-1.9-1.8-2.2-2.7l-13.7-31.3-13.7 31.3c-.3.9-1 1.8-2.2 2.7-1.1 1-2.6 1.4-4.4 1.4zM382.9 26c0-6.9 3.3-13 9.8-18.2 6.5-5.2 15.7-7.8 27.4-7.8s20.6 2.5 26.7 7.6c6.1 5.1 9.1 11.2 9.1 18.4 0 10.3-6.1 18.9-18.4 25.8l9.7 9.3c1.9-1.6 4.2-4.9 6.8-10.1.4-.9 1.4-1.4 3-1.4h24.1c.8 0 1.4.2 1.9.7.5.5.7 1.1.7 1.8 0 2.8-2 7.3-6.1 13.5s-7.9 11.1-11.4 14.6L484 98.9c.6.6.9 1.4.9 2.2 0 .8-.3 1.5-.8 2s-1.2.8-1.9.8H451c-1.3 0-2.5-.5-3.7-1.6l-4-3.8c-8.5 3.7-18.1 5.6-28.7 5.6-13.7 0-24.2-2.6-31.6-7.9-7.4-5.3-11.1-12.9-11.1-22.9 0-11.2 6.4-20.2 19.3-27.2-5.5-6.4-8.3-13.1-8.3-20.1zm22.9 44.8c0 2.5 1 4.5 3 6.1 2 1.5 4.5 2.3 7.6 2.3 3.1 0 5.3-.5 6.7-1.4l-13.2-12.5c-2.8 1.2-4.1 3-4.1 5.5zm14.9-48.1c-1.4 0-2.6.5-3.6 1.5s-1.6 2.3-1.6 3.9 1.4 3.7 4.3 6.3c4.2-1.8 6.2-4.1 6.2-7 0-3.1-1.8-4.7-5.3-4.7zM222.3 156.6v17.7c0 9.9-2.5 18.3-7.4 24.9-5 6.7-11.4 11.4-19.5 14.2-8 2.8-17.5 4.2-28.4 4.2-10.9 0-20.4-1.4-28.4-4.2-8-2.8-14.5-7.5-19.5-14.2-5-6.7-7.4-15.1-7.4-25.2v-17.1c0-14.6 5.1-25.5 15.4-32.7 10.2-7.2 23.5-10.9 39.9-10.9 16.3 0 29.6 3.6 39.9 10.9 10.3 7.2 15.4 18.1 15.4 32.4zm-70.4-2.4v22.5c0 3.8 1.4 6.8 4.1 8.8 2.7 2.1 6.4 3.1 11.1 3.1 4.7 0 8.3-1.1 11.1-3.2 2.7-2.1 4.1-5.1 4.1-8.9v-22.2c0-3.8-1.4-6.8-4.1-8.9-2.7-2.1-6.4-3.2-11.1-3.2-4.7 0-8.3 1-11.1 3.1-2.8 2.2-4.1 5.1-4.1 8.9zM271.6 187h50.7c1.1 0 2 .4 2.8 1.2.8.8 1.2 1.7 1.2 2.8v22.4c0 1.1-.4 2-1.2 2.8-.8.8-1.7 1.2-2.8 1.2h-86.8c-1.1 0-2-.4-2.8-1.2-.8-.8-1.2-1.7-1.2-2.8v-96c0-1.1.4-2 1.2-2.8.8-.8 1.7-1.2 2.8-1.2h32.1c1.1 0 2 .4 2.8 1.2.8.8 1.2 1.7 1.2 2.8V187zm160.5-43.1h-26.9V187h26.9c1.1 0 2 .4 2.8 1.2.8.8 1.2 1.7 1.2 2.8v22.4c0 1.1-.4 2-1.2 2.8-.8.8-1.7 1.2-2.8 1.2h-94.2c-1.1 0-2-.4-2.8-1.2-.8-.8-1.2-1.7-1.2-2.8V191c0-1.1.4-2 1.2-2.8.8-.8 1.7-1.2 2.8-1.2h27.2v-43.1h-27.2c-1.1 0-2-.4-2.8-1.2-.8-.8-1.2-1.7-1.2-2.8v-22.4c0-1.1.4-2 1.2-2.8.8-.8 1.7-1.2 2.8-1.2h94.2c1.1 0 2 .4 2.8 1.2.8.8 1.2 1.7 1.2 2.8v22.4c0 1.1-.4 2-1.2 2.8-.8.8-1.7 1.2-2.8 1.2zm16.2-30.4h102.5c1.1 0 2 .4 2.8 1.2.8.8 1.2 1.7 1.2 2.8v23.9c0 1.1-.4 2-1.2 2.8-.8.8-1.7 1.2-2.8 1.2h-31.9v68c0 1.1-.4 2-1.2 2.8-.8.8-1.7 1.2-2.8 1.2h-30.6c-1.1 0-2-.4-2.8-1.2-.8-.8-1.2-1.7-1.2-2.8v-68h-31.9c-1.1 0-2-.4-2.8-1.2-.8-.8-1.2-1.7-1.2-2.8v-23.9c0-1.1.4-2 1.2-2.8.6-.8 1.6-1.2 2.7-1.2zM661 143.9h-26.9V187H661c1.1 0 2 .4 2.8 1.2.8.8 1.2 1.7 1.2 2.8v22.4c0 1.1-.4 2-1.2 2.8-.8.8-1.7 1.2-2.8 1.2h-94.2c-1.1 0-2-.4-2.8-1.2-.8-.8-1.2-1.7-1.2-2.8V191c0-1.1.4-2 1.2-2.8.8-.8 1.7-1.2 2.8-1.2H594v-43.1h-27.2c-1.1 0-2-.4-2.8-1.2-.8-.8-1.2-1.7-1.2-2.8v-22.4c0-1.1.4-2 1.2-2.8.8-.8 1.7-1.2 2.8-1.2H661c1.1 0 2 .4 2.8 1.2.8.8 1.2 1.7 1.2 2.8v22.4c0 1.1-.4 2-1.2 2.8-.7.8-1.7 1.2-2.8 1.2zm49.4 10.3v22.5c0 3.8 1.4 6.8 4.1 8.8 2.7 2.1 6.3 3.1 10.7 3.1 4.4 0 7.6-.7 9.6-2s3.6-3.2 5-5.8c1.3-2.5 3.1-3.8 5.3-3.8h32.1c.9 0 1.7.3 2.3 1 .6.6 1 1.4 1 2.3 0 9.1-4.4 17.3-13.1 24.8-4.4 3.7-10.2 6.7-17.4 9-7.2 2.3-15.7 3.4-25.5 3.4s-18.7-1.5-26.8-4.4c-8.1-2.9-14.6-7.8-19.7-14.5s-7.6-14.9-7.6-24.7v-17.1c0-9.8 2.5-18 7.6-24.8 9.5-12.6 25.4-18.8 47.7-18.8 9 0 17.1 1.1 24.4 3.4 7.2 2.3 13 5.3 17.4 9 8.7 7.5 13.1 15.8 13.1 24.8 0 .9-.3 1.6-1 2.3-.6.6-1.4.9-2.3.9H745c-2.2 0-3.9-1.3-5.3-3.8-1.3-2.5-3-4.4-5-5.8-2-1.3-5.2-2-9.6-2-4.4 0-8 1-10.7 3.1-2.7 2.4-4 5.3-4 9.1zm100.3 63.3h-28.1c-.9 0-1.7-.3-2.3-1-.6-.6-1-1.3-1-1.9 0-.6 0-1 .1-1.3l32.4-94.9c.9-3.3 3.1-4.9 6.7-4.9h41.3c3.6 0 5.8 1.6 6.7 4.9l32.4 94.9c.1.3.1.7.1 1.3 0 .6-.3 1.2-1 1.9-.6.6-1.4 1-2.3 1h-28.1c-3.2 0-5.4-1.7-6.7-5.1l-3.7-10.4H821l-3.7 10.4c-1.2 3.4-3.4 5.1-6.6 5.1zm39.1-44.4l-10.5-30.9-10.5 30.9h21zm95.5 13.9H996c1.1 0 2 .4 2.8 1.2.8.8 1.2 1.7 1.2 2.8v22.4c0 1.1-.4 2-1.2 2.8-.8.8-1.7 1.2-2.8 1.2h-86.8c-1.1 0-2-.4-2.8-1.2-.8-.8-1.2-1.7-1.2-2.8v-96c0-1.1.4-2 1.2-2.8.8-.8 1.7-1.2 2.8-1.2h32.1c1.1 0 2 .4 2.8 1.2.8.8 1.2 1.7 1.2 2.8V187zm-795.7 80.6v22.5c0 3.8 1.4 6.8 4.1 8.8 2.7 2.1 6.3 3.1 10.7 3.1 4.4 0 7.6-.7 9.6-2s3.6-3.2 5-5.8c1.3-2.5 3.1-3.8 5.3-3.8h32.1c.9 0 1.7.3 2.3 1 .6.6 1 1.4 1 2.3 0 9.1-4.4 17.3-13.1 24.8-4.4 3.7-10.2 6.7-17.4 9-7.2 2.3-15.7 3.4-25.5 3.4s-18.7-1.5-26.8-4.4c-8.1-2.9-14.6-7.8-19.7-14.5s-7.6-14.9-7.6-24.7v-17.1c0-9.8 2.5-18 7.6-24.8 9.5-12.6 25.4-18.8 47.7-18.8 9 0 17.1 1.1 24.4 3.4 7.2 2.3 13 5.3 17.4 9 8.7 7.5 13.1 15.8 13.1 24.8 0 .9-.3 1.6-1 2.3-.6.6-1.4.9-2.3.9h-32.1c-2.2 0-3.9-1.3-5.3-3.8-1.3-2.5-3-4.4-5-5.8-2-1.3-5.2-2-9.6-2-4.4 0-8 1-10.7 3.1-2.8 2.3-4.2 5.3-4.2 9.1zm187.8 2.4v17.7c0 9.9-2.5 18.3-7.4 24.9-5 6.7-11.4 11.4-19.5 14.2-8 2.8-17.5 4.2-28.4 4.2-10.9 0-20.4-1.4-28.4-4.2-8-2.8-14.5-7.5-19.5-14.2-5-6.7-7.4-15.1-7.4-25.2v-17.1c0-14.6 5.1-25.5 15.4-32.7 10.2-7.2 23.5-10.9 39.9-10.9 16.3 0 29.6 3.6 39.9 10.9s15.4 18 15.4 32.4zm-70.4-2.4v22.5c0 3.8 1.4 6.8 4.1 8.8 2.7 2.1 6.4 3.1 11.1 3.1 4.7 0 8.3-1.1 11.1-3.2 2.7-2.1 4.1-5.1 4.1-8.9v-22.2c0-3.8-1.4-6.8-4.1-8.9-2.7-2.1-6.4-3.2-11.1-3.2-4.7 0-8.3 1-11.1 3.1-2.7 2.1-4.1 5.1-4.1 8.9zm149.9-40.8h27.6c1.1 0 2 .4 2.8 1.2.8.8 1.2 1.7 1.2 2.8v96c0 1.1-.4 2-1.2 2.8-.8.8-1.7 1.2-2.8 1.2h-23.9c-2.4 0-4.4-1-5.9-3.1l-32.4-41.3v40.4c0 1.1-.4 2-1.2 2.8-.8.8-1.7 1.2-2.8 1.2h-27.6c-1.1 0-2-.4-2.8-1.2-.8-.8-1.2-1.7-1.2-2.8v-96c0-1.1.4-2 1.2-2.8.8-.8 1.7-1.2 2.8-1.2h24.1c2.4 0 4.3 1 5.8 3l32.4 44.7v-43.7c0-1.1.4-2 1.2-2.8.6-.8 1.6-1.2 2.7-1.2zM568.2 270v17.7c0 9.9-2.5 18.3-7.4 24.9-5 6.7-11.4 11.4-19.5 14.2-8 2.8-17.5 4.2-28.4 4.2-10.9 0-20.4-1.4-28.4-4.2-8-2.8-14.5-7.5-19.5-14.2-5-6.7-7.4-15.1-7.4-25.2v-17.1c0-14.6 5.1-25.5 15.4-32.7 10.2-7.2 23.5-10.9 39.9-10.9 16.3 0 29.6 3.6 39.9 10.9s15.4 18 15.4 32.4zm-70.4-2.4v22.5c0 3.8 1.4 6.8 4.1 8.8 2.7 2.1 6.4 3.1 11.1 3.1 4.7 0 8.3-1.1 11.1-3.2 2.7-2.1 4.1-5.1 4.1-8.9v-22.2c0-3.8-1.4-6.8-4.1-8.9-2.7-2.1-6.4-3.2-11.1-3.2-4.7 0-8.3 1-11.1 3.1-2.7 2.1-4.1 5.1-4.1 8.9zm162.5-40.8h27.2c1.1 0 2 .4 2.8 1.2.8.8 1.2 1.7 1.2 2.8v96c0 1.1-.4 2-1.2 2.8-.8.8-1.7 1.2-2.8 1.2h-26.9c-1.1 0-2-.4-2.8-1.2-.8-.8-1.2-1.7-1.2-2.8v-46l-10.8 21.4c-.6 1.2-1.5 2.1-2.7 2.7-1.2.6-2.4 1-3.6 1h-10.1c-1.7 0-3.1-.4-4.2-1.3s-1.8-1.7-2.1-2.4l-10.8-21.4v46c0 1.1-.4 2-1.2 2.8-.8.8-1.7 1.2-2.8 1.2h-26.9c-1.1 0-2-.4-2.8-1.2-.8-.8-1.2-1.7-1.2-2.8v-96c0-1.1.4-2 1.2-2.8.8-.8 1.7-1.2 2.8-1.2h27.2c2.8 0 4.9 1.3 6.4 4l19.5 35.7 19.5-35.7c1.4-2.6 3.5-4 6.3-4zm116.8 0h31c.9 0 1.7.3 2.3 1 .6.6 1 1.3 1 2s-.1 1.3-.4 1.9l-37.4 61.9v33.1c0 1.1-.4 2-1.2 2.8-.8.8-1.7 1.2-2.8 1.2H738c-1.1 0-2-.4-2.8-1.2-.8-.8-1.2-1.7-1.2-2.8v-33.1l-37.3-61.9c-.3-.6-.4-1.2-.4-1.9s.3-1.4 1-2c.6-.6 1.4-1 2.3-1h31.3c2.8 0 4.8 1.1 6.1 3.4l16.8 29.4 17.2-29.1c1.3-2.4 3.4-3.7 6.1-3.7z" fill="#fff"/></svg>