<?xml version="1.0" encoding="utf-8"?>
<!-- Generator: Adobe Illustrator 22.1.0, SVG Export Plug-In . SVG Version: 6.00 Build 0)  -->
<!DOCTYPE svg PUBLIC "-//W3C//DTD SVG 1.1//EN" "http://www.w3.org/Graphics/SVG/1.1/DTD/svg11.dtd">
<svg version="1.1" id="Layer_1" xmlns="http://www.w3.org/2000/svg" xmlns:xlink="http://www.w3.org/1999/xlink" x="0px" y="0px"
	 viewBox="0 0 237.7 800" style="enable-background:new 0 0 237.7 800;" xml:space="preserve">
<style type="text/css">
	.st0{fill:#FFFFFF;}
</style>
<g>
	<path class="st0" d="M90.4,165.7h138.3c2.5,0,4.6,0.9,6.4,2.7c1.8,1.8,2.7,3.9,2.7,6.4v50.5c0,2.5-0.9,4.6-2.7,6.4
		c-1.8,1.8-3.9,2.7-6.4,2.7H9c-2.5,0-4.6-0.9-6.4-2.7c-1.8-1.8-2.7-3.9-2.7-6.4V9c0-2.5,0.9-4.6,2.7-6.4C4.5,0.9,6.6,0,9,0h72.3
		c2.5,0,4.6,0.9,6.4,2.7c1.8,1.8,2.7,3.9,2.7,6.4V165.7z"/>
	<path class="st0" d="M9.2,255.4h125.2c31.7,0,56.8,7.7,75.3,23.1c18.5,15.4,27.8,35.1,27.8,59.2c0,24.1-7.8,43.2-23.4,57.4
		c-15.6,14.2-42.2,21.3-79.7,21.3H90.2v64.3c0,2.5-0.9,4.6-2.7,6.4c-1.8,1.8-3.9,2.7-6.4,2.7h-72c-2.5,0-4.6-0.9-6.4-2.7
		c-1.8-1.8-2.7-3.9-2.7-6.4V264.4c0-2.5,0.9-4.6,2.7-6.4C4.7,256.3,6.8,255.4,9.2,255.4z M90.6,317.6v36.8h42.5
		c5.1,0,9.3-1.6,12.6-4.7c3.2-3.1,4.9-7.5,4.9-13.1c0-5.6-1.6-10.2-4.7-13.7c-3.1-3.6-7.4-5.4-12.7-5.4H90.6z"/>
	<g>
		<path class="st0" d="M87,679.8h141.6c2.5,0,4.6,0.9,6.4,2.7c1.8,1.8,2.7,3.9,2.7,6.4V736c0,2.5-0.9,4.6-2.7,6.4
			c-1.8,1.8-3.9,2.7-6.4,2.7H9.1c-2.5,0-4.6-0.9-6.4-2.7C0.9,740.6,0,738.5,0,736V519.8c0-2.5,0.9-4.6,2.7-6.4
			c1.8-1.8,3.9-2.7,6.4-2.7h219.2c2.5,0,4.6,0.9,6.4,2.7c1.8,1.8,2.7,3.9,2.7,6.4V567c0,2.5-0.9,4.6-2.7,6.4
			c-1.8,1.8-3.9,2.7-6.4,2.7H87v21.1h111.8c2.5,0,4.6,0.9,6.4,2.7c1.8,1.8,2.7,3.9,2.7,6.4v43.5c0,2.5-0.9,4.6-2.7,6.4
			c-1.8,1.8-3.9,2.7-6.4,2.7H87V679.8z"/>
		<g>
			<path class="st0" d="M0.4,799.1c-0.3-0.3-0.4-0.6-0.4-0.9v-30.8c0-0.4,0.1-0.7,0.4-0.9c0.3-0.3,0.6-0.4,0.9-0.4h14.5
				c4.5,0,8,1,10.5,3c2.6,2,3.8,4.9,3.8,8.7c0,3.8-1.3,6.7-3.8,8.5s-6.1,2.8-10.5,2.8h-3.3v9.1c0,0.4-0.1,0.7-0.4,0.9
				c-0.3,0.3-0.6,0.4-0.9,0.4H1.3C1,799.5,0.7,799.4,0.4,799.1z M15.5,780.3c0.6,0,1.1-0.2,1.5-0.6c0.4-0.4,0.7-1.1,0.7-1.9
				c0-0.7-0.2-1.4-0.5-1.9c-0.4-0.5-0.9-0.8-1.7-0.8h-3.3v5.3H15.5z"/>
			<path class="st0" d="M35,799.1c-0.3-0.3-0.4-0.6-0.4-0.9v-30.8c0-0.4,0.1-0.7,0.4-0.9c0.3-0.3,0.6-0.4,0.9-0.4H50
				c4.6,0,8.2,1,10.7,3.1c2.6,2.1,3.9,4.9,3.9,8.5c0,2.1-0.5,3.9-1.4,5.5c-0.9,1.6-2.2,2.9-3.8,3.9l5.9,10.9
				c0.1,0.2,0.1,0.4,0.1,0.5c0,0.3-0.1,0.5-0.3,0.7c-0.2,0.2-0.5,0.3-0.7,0.3h-9.8c-0.6,0-1-0.1-1.4-0.4c-0.3-0.3-0.6-0.6-0.7-0.9
				l-4.1-9.1h-2v9.1c0,0.4-0.1,0.7-0.4,0.9c-0.3,0.3-0.6,0.4-0.9,0.4h-9.3C35.5,799.5,35.2,799.4,35,799.1z M50,780.1
				c0.7,0,1.2-0.2,1.6-0.7c0.4-0.5,0.6-1,0.6-1.7c0-0.7-0.2-1.3-0.5-1.8c-0.4-0.5-0.9-0.8-1.6-0.8h-3.5v5.1H50z"/>
			<path class="st0" d="M73.4,796.7c-2.8-2.2-4.3-5.4-4.5-9.6c0-0.9,0-2.2,0-4.1c0-1.9,0-3.4,0-4.2c0.1-2.7,0.8-5.1,2.2-7.1
				c1.4-2,3.2-3.5,5.6-4.5c2.4-1,5.1-1.5,8.2-1.5c3.1,0,5.9,0.5,8.2,1.5c2.4,1,4.2,2.5,5.6,4.5c1.4,2,2.1,4.3,2.2,7.1
				c0.1,1.8,0.1,3.2,0.1,4.2c0,1,0,2.4-0.1,4.1c-0.2,4.2-1.7,7.4-4.5,9.6c-2.8,2.2-6.6,3.3-11.4,3.3S76.3,798.9,73.4,796.7z
				 M87.4,789.7c0.6-0.6,0.9-1.6,1-2.9c0.1-1.8,0.1-3.2,0.1-4.1c0-0.9,0-2.2-0.1-4c0-1.3-0.4-2.3-1-2.9c-0.6-0.6-1.5-1-2.5-1
				s-1.9,0.3-2.5,1c-0.6,0.6-1,1.6-1,2.9c0,0.9,0,2.2,0,4c0,1.8,0,3.1,0,4.1c0,1.3,0.4,2.3,1,2.9c0.6,0.6,1.5,1,2.6,1
				C85.9,790.7,86.8,790.4,87.4,789.7z"/>
			<path class="st0" d="M111.6,798.6c-2.3-0.9-4.1-2.3-5.5-4c-1.4-1.8-2.1-3.9-2.1-6.3c0-0.3,0.1-0.5,0.3-0.7
				c0.2-0.2,0.5-0.3,0.7-0.3h9.7c0.5,0,0.9,0.1,1.2,0.4c0.3,0.2,0.5,0.6,0.8,1.2c0.3,0.7,0.7,1.2,1.1,1.5c0.4,0.3,1,0.4,1.7,0.4
				c0.9,0,1.6-0.3,2.1-0.9c0.5-0.6,0.7-1.6,0.7-3v-11h-14.2c-0.4,0-0.7-0.1-0.9-0.4c-0.3-0.3-0.4-0.6-0.4-0.9v-7.1
				c0-0.4,0.1-0.7,0.4-0.9c0.3-0.3,0.6-0.4,0.9-0.4h25.2c0.3,0,0.7,0.1,0.9,0.4s0.4,0.6,0.4,0.9v19.8c0,2.8-0.7,5.2-2,7.1
				c-1.4,1.9-3.2,3.3-5.5,4.3c-2.3,0.9-5,1.4-8,1.4C116.4,800,113.9,799.5,111.6,798.6z"/>
			<path class="st0" d="M140.9,799.1c-0.3-0.3-0.4-0.6-0.4-0.9v-30.8c0-0.4,0.1-0.7,0.4-0.9s0.6-0.4,0.9-0.4h24.5
				c0.3,0,0.7,0.1,0.9,0.4c0.3,0.3,0.4,0.6,0.4,0.9v6.7c0,0.4-0.1,0.7-0.4,0.9c-0.3,0.3-0.6,0.4-0.9,0.4H152v3h13.3
				c0.3,0,0.7,0.1,0.9,0.4s0.4,0.6,0.4,0.9v6.2c0,0.4-0.1,0.7-0.4,0.9s-0.6,0.4-0.9,0.4H152v3h14.7c0.4,0,0.7,0.1,0.9,0.4
				s0.4,0.6,0.4,0.9v6.7c0,0.4-0.1,0.7-0.4,0.9c-0.3,0.3-0.6,0.4-0.9,0.4h-24.8C141.5,799.5,141.2,799.4,140.9,799.1z"/>
			<path class="st0" d="M176.7,796.8c-2.8-2.1-4.3-5.4-4.5-9.8c0-0.9,0-2.3,0-4.2c0-2,0-3.4,0-4.3c0.2-4.3,1.7-7.5,4.6-9.7
				c2.9-2.2,6.7-3.3,11.4-3.3c2.9,0,5.5,0.4,7.9,1.3c2.4,0.9,4.4,2.2,5.9,4c1.5,1.8,2.3,4.1,2.3,6.9c0,0.3-0.1,0.5-0.3,0.7
				c-0.2,0.2-0.5,0.3-0.7,0.3h-9.7c-0.5,0-0.9-0.1-1.1-0.3c-0.2-0.2-0.5-0.6-0.6-1.1c-0.4-1-0.8-1.6-1.4-2c-0.6-0.4-1.3-0.6-2.2-0.6
				c-1.1,0-2,0.3-2.6,0.9c-0.6,0.6-0.9,1.6-1,3c0,0.9,0,2.2,0,4c0,1.8,0,3.1,0,4.1c0,1.4,0.3,2.4,1,3c0.6,0.6,1.5,0.9,2.6,0.9
				c1.8,0,3-0.9,3.6-2.6c0.2-0.5,0.4-0.9,0.6-1.1c0.2-0.2,0.6-0.3,1.2-0.3h9.7c0.3,0,0.5,0.1,0.7,0.3c0.2,0.2,0.3,0.5,0.3,0.7
				c0,2.8-0.8,5.1-2.3,6.9c-1.5,1.8-3.5,3.2-5.9,4c-2.4,0.9-5,1.3-7.9,1.3C183.4,800,179.6,798.9,176.7,796.8z"/>
			<path class="st0" d="M216.7,799.1c-0.3-0.3-0.4-0.6-0.4-0.9v-21.8h-7.9c-0.4,0-0.7-0.1-0.9-0.4s-0.4-0.6-0.4-0.9v-7.7
				c0-0.4,0.1-0.7,0.4-0.9s0.6-0.4,0.9-0.4h27.9c0.3,0,0.7,0.1,0.9,0.4c0.3,0.3,0.4,0.6,0.4,0.9v7.7c0,0.4-0.1,0.7-0.4,0.9
				c-0.3,0.3-0.6,0.4-0.9,0.4h-7.9v21.8c0,0.4-0.1,0.7-0.4,0.9c-0.3,0.3-0.6,0.4-0.9,0.4h-9.5C217.3,799.5,217,799.4,216.7,799.1z"
				/>
		</g>
	</g>
</g>
</svg>
